<svg width="391" height="115" viewBox="0 0 391 115" fill="none" xmlns="http://www.w3.org/2000/svg">
<rect y="32.8571" width="57.8285" height="24.0952" fill="url(#paint0_linear_2508_37858)"/>
<rect width="57.8285" height="24.0952" transform="matrix(-1 0 0 1 57.8301 56.9524)" fill="url(#paint1_linear_2508_37858)"/>
<path d="M88.7148 115V66.8095H116.753V73.6939H95.7244V86.2922H114.019V93.1766H95.7244V108.116H116.753V115H88.7148Z" fill="#EB7D32"/>
<path d="M148.016 115L138.833 97.9956L129.651 115H121.66L134.908 90.7671L122.01 66.8095H129.651L138.833 83.6073L148.016 66.8095H155.656L142.759 90.7671L156.007 115H148.016Z" fill="#EB7D32"/>
<path d="M173.123 115C166.184 115 160.506 109.355 160.506 102.539V79.2013C160.506 72.317 166.184 66.8095 173.123 66.8095H178.731C185.741 66.8095 191.348 72.317 191.348 79.2013V82.9877H184.339V79.2013C184.339 76.1034 181.885 73.6939 178.731 73.6939H173.123C169.969 73.6939 167.516 76.1722 167.516 79.2013V102.539C167.516 105.568 170.039 108.047 173.123 108.047H178.731C181.815 108.047 184.339 105.568 184.339 102.539V98.7529H191.348V102.539C191.348 109.355 185.741 115 178.731 115H173.123Z" fill="#EB7D32"/>
<path d="M206.854 66.8095V86.0857H225.079V66.8095H232.088V115H225.079V92.9701H206.854V115H199.844V66.8095H206.854Z" fill="#EB7D32"/>
<path d="M240.359 115V99.166L252.625 66.8095H259.635L271.902 99.166V115H264.892V103.847H247.368V115H240.359ZM248.7 96.963H263.56L256.2 77.6868H256.06L248.7 96.963Z" fill="#EB7D32"/>
<path d="M280.205 115V66.8095H290.79L306.141 104.949V66.8095H313.15V115H302.566L287.215 76.8607V115H280.205Z" fill="#EB7D32"/>
<path d="M335.984 95.9303V89.046H353.508V102.539C353.508 109.355 347.9 115 340.891 115H335.283C328.344 115 322.666 109.355 322.666 102.539V79.2013C322.666 72.317 328.344 66.8095 335.283 66.8095H340.891C347.9 66.8095 353.508 72.317 353.508 79.2013V82.9877H346.498V79.2013C346.498 76.1034 344.045 73.6939 340.891 73.6939H335.283C332.129 73.6939 329.675 76.1722 329.675 79.2013V102.539C329.675 105.568 332.199 108.047 335.283 108.047H340.891C343.975 108.047 346.498 105.568 346.498 102.539V95.9303H335.984Z" fill="#EB7D32"/>
<path d="M362.962 115V66.8095H391.001V73.6939H369.972V86.2922H388.267V93.1766H369.972V108.116H391.001V115H362.962Z" fill="#EB7D32"/>
<path d="M88.7148 48.1905V0H106.952C113.967 0 119.578 5.50749 119.578 12.3918V16.5225C119.578 23.4068 113.967 28.9143 106.952 28.9143H95.7292V48.1905H88.7148ZM95.7292 22.0299H106.952C110.109 22.0299 112.564 19.6204 112.564 16.5225V12.3918C112.564 9.29388 110.109 6.88436 106.952 6.88436H95.7292V22.0299Z" fill="white"/>
<path d="M123.435 48.1905V32.3565L135.71 0H142.724L154.999 32.3565V48.1905H147.985V37.0378H130.449V48.1905H123.435ZM131.782 30.1535H146.652L139.287 10.8773H139.147L131.782 30.1535Z" fill="white"/>
<path d="M170.74 31.0484L158.815 16.5225V0H165.829V14.0441L174.106 24.1641H174.387L182.664 14.0441V0H189.678V16.5225L177.754 31.0484V48.1905H170.74V31.0484Z" fill="white"/>
<path d="M198.003 48.1905V0H205.017V41.3061H225.218V48.1905H198.003Z" fill="white"/>
<path d="M243.336 48.1905C236.111 48.1905 230.149 42.5453 230.149 35.7298V12.3918C230.149 5.50749 236.111 0 243.336 0H249.228C256.523 0 262.415 5.50749 262.415 12.3918V35.7298C262.415 42.5453 256.523 48.1905 249.228 48.1905H243.336ZM237.093 35.7298C237.093 38.7589 239.969 41.2373 243.336 41.2373H249.228C252.595 41.2373 255.471 38.7589 255.471 35.7298V12.3918C255.471 9.29388 252.735 6.88436 249.228 6.88436H243.336C239.829 6.88436 237.093 9.36272 237.093 12.3918V35.7298Z" fill="white"/>
<path d="M269.882 48.1905V32.3565L282.157 0H289.172L301.447 32.3565V48.1905H294.433V37.0378H276.897V48.1905H269.882ZM278.229 30.1535H293.1L285.735 10.8773H285.594L278.229 30.1535Z" fill="white"/>
<path d="M309.756 48.1905V0H327.994C334.938 0 340.62 5.50749 340.62 12.3918V35.7298C340.62 42.5453 334.938 48.1905 327.994 48.1905H309.756ZM316.771 41.2373H327.994C331.08 41.2373 333.605 38.7589 333.605 35.7298V12.3918C333.605 9.36272 331.15 6.88436 327.994 6.88436H316.771V41.2373Z" fill="white"/>
<defs>
<linearGradient id="paint0_linear_2508_37858" x1="0" y1="44.9047" x2="57.8285" y2="44.9047" gradientUnits="userSpaceOnUse">
<stop stop-color="#EB7D32"/>
<stop offset="1" stop-color="#EB7D32" stop-opacity="0"/>
</linearGradient>
<linearGradient id="paint1_linear_2508_37858" x1="0" y1="12.0476" x2="57.8285" y2="12.0476" gradientUnits="userSpaceOnUse">
<stop stop-color="#EB7D32"/>
<stop offset="1" stop-color="#EB7D32" stop-opacity="0"/>
</linearGradient>
</defs>
</svg>
