<svg width="659" height="48" viewBox="0 0 659 48" fill="none" xmlns="http://www.w3.org/2000/svg">
<rect width="57.5999" height="24" fill="url(#paint0_linear_2508_38068)"/>
<rect width="57.5999" height="24" transform="matrix(-1 0 0 1 57.5996 24)" fill="url(#paint1_linear_2508_38068)"/>
<path d="M357.82 48V0H385.748V6.85714H364.802V19.4057H383.025V26.2629H364.802V41.1429H385.748V48H357.82Z" fill="#EB7D32"/>
<path d="M416.887 48L407.741 31.0629L398.594 48H390.635L403.831 23.8629L390.984 0H398.594L407.741 16.7314L416.887 0H424.497L411.651 23.8629L424.846 48H416.887Z" fill="#EB7D32"/>
<path d="M441.895 48C434.983 48 429.328 42.3771 429.328 35.5886V12.3429C429.328 5.48572 434.983 0 441.895 0H447.481C454.463 0 460.048 5.48572 460.048 12.3429V16.1143H453.066V12.3429C453.066 9.25714 450.623 6.85714 447.481 6.85714H441.895C438.753 6.85714 436.31 9.32572 436.31 12.3429V35.5886C436.31 38.6057 438.823 41.0743 441.895 41.0743H447.481C450.553 41.0743 453.066 38.6057 453.066 35.5886V31.8171H460.048V35.5886C460.048 42.3771 454.463 48 447.481 48H441.895Z" fill="#EB7D32"/>
<path d="M475.492 0V19.2H493.645V0H500.627V48H493.645V26.0571H475.492V48H468.51V0H475.492Z" fill="#EB7D32"/>
<path d="M508.865 48V32.2286L521.083 0H528.065L540.283 32.2286V48H533.301V36.8914H515.846V48H508.865ZM517.173 30.0343H531.975L524.644 10.8343H524.504L517.173 30.0343Z" fill="#EB7D32"/>
<path d="M548.554 48V0H559.096L574.387 37.9886V0H581.369V48H570.826L555.536 10.0114V48H548.554Z" fill="#EB7D32"/>
<path d="M604.112 29.0057V22.1486H621.567V35.5886C621.567 42.3771 615.981 48 608.999 48H603.414C596.502 48 590.847 42.3771 590.847 35.5886V12.3429C590.847 5.48572 596.502 0 603.414 0H608.999C615.981 0 621.567 5.48572 621.567 12.3429V16.1143H614.585V12.3429C614.585 9.25714 612.141 6.85714 608.999 6.85714H603.414C600.272 6.85714 597.828 9.32572 597.828 12.3429V35.5886C597.828 38.6057 600.342 41.0743 603.414 41.0743H608.999C612.071 41.0743 614.585 38.6057 614.585 35.5886V29.0057H604.112Z" fill="#EB7D32"/>
<path d="M630.984 48V0H658.911V6.85714H637.966V19.4057H656.188V26.2629H637.966V41.1429H658.911V48H630.984Z" fill="#EB7D32"/>
<path d="M88.3652 48V0H106.531C113.517 0 119.107 5.48572 119.107 12.3429V16.4571C119.107 23.3143 113.517 28.8 106.531 28.8H95.3519V48H88.3652ZM95.3519 21.9429H106.531C109.675 21.9429 112.12 19.5429 112.12 16.4571V12.3429C112.12 9.25714 109.675 6.85714 106.531 6.85714H95.3519V21.9429Z" fill="white"/>
<path d="M122.948 48V32.2286L135.174 0H142.161L154.388 32.2286V48H147.401V36.8914H129.934V48H122.948ZM131.262 30.0343H146.074L138.738 10.8343H138.598L131.262 30.0343Z" fill="white"/>
<path d="M170.066 30.9257L158.188 16.4571V0H165.175V13.9886L173.419 24.0686H173.699L181.943 13.9886V0H188.93V16.4571L177.052 30.9257V48H170.066V30.9257Z" fill="white"/>
<path d="M197.221 48V0H204.208V41.1429H224.329V48H197.221Z" fill="white"/>
<path d="M242.375 48C235.179 48 229.24 42.3771 229.24 35.5886V12.3429C229.24 5.48572 235.179 0 242.375 0H248.244C255.51 0 261.379 5.48572 261.379 12.3429V35.5886C261.379 42.3771 255.51 48 248.244 48H242.375ZM236.157 35.5886C236.157 38.6057 239.021 41.0743 242.375 41.0743H248.244C251.597 41.0743 254.462 38.6057 254.462 35.5886V12.3429C254.462 9.25714 251.737 6.85714 248.244 6.85714H242.375C238.882 6.85714 236.157 9.32572 236.157 12.3429V35.5886Z" fill="white"/>
<path d="M268.816 48V32.2286L281.043 0H288.03L300.256 32.2286V48H293.27V36.8914H275.803V48H268.816ZM277.131 30.0343H291.942L284.606 10.8343H284.467L277.131 30.0343Z" fill="white"/>
<path d="M308.533 48V0H326.698C333.615 0 339.274 5.48572 339.274 12.3429V35.5886C339.274 42.3771 333.615 48 326.698 48H308.533ZM315.52 41.0743H326.698C329.772 41.0743 332.288 38.6057 332.288 35.5886V12.3429C332.288 9.32572 329.842 6.85714 326.698 6.85714H315.52V41.0743Z" fill="white"/>
<defs>
<linearGradient id="paint0_linear_2508_38068" x1="0" y1="12" x2="57.5999" y2="12" gradientUnits="userSpaceOnUse">
<stop stop-color="#EB7D32"/>
<stop offset="1" stop-color="#EB7D32" stop-opacity="0"/>
</linearGradient>
<linearGradient id="paint1_linear_2508_38068" x1="0" y1="12" x2="57.5999" y2="12" gradientUnits="userSpaceOnUse">
<stop stop-color="#EB7D32"/>
<stop offset="1" stop-color="#EB7D32" stop-opacity="0"/>
</linearGradient>
</defs>
</svg>
